<svg width="20" height="20" viewBox="0 0 20 20" fill="none" xmlns="http://www.w3.org/2000/svg">
<path d="M15.8334 9.58366V10.417C15.8334 10.6471 15.6469 10.8337 15.4167 10.8337H10.8334V15.417C10.8334 15.6471 10.6469 15.8337 10.4167 15.8337H9.58342C9.3533 15.8337 9.16675 15.6471 9.16675 15.417V10.8337H4.58341C4.3533 10.8337 4.16675 10.6471 4.16675 10.417V9.58366C4.16675 9.35354 4.3533 9.16699 4.58341 9.16699H9.16675V4.58366C9.16675 4.35354 9.3533 4.16699 9.58342 4.16699H10.4167C10.6469 4.16699 10.8334 4.35354 10.8334 4.58366V9.16699H15.4167C15.6469 9.16699 15.8334 9.35354 15.8334 9.58366Z" fill="white"/>
</svg>
