<svg width="24" height="24" viewBox="0 0 24 24" fill="none" xmlns="http://www.w3.org/2000/svg">
<path d="M20.22 16.6195C20.22 17.4695 19.53 18.1595 18.68 18.1595H5.32003C4.47003 18.1595 3.78003 17.4695 3.78003 16.6195C3.78003 15.7695 4.47003 15.0795 5.32003 15.0795H5.83003V9.93953C5.83003 6.53953 8.59003 3.76953 12 3.76953C13.7 3.76953 15.24 4.45953 16.36 5.57953C17.48 6.68953 18.17 8.22953 18.17 9.93953V15.0795H18.68C19.53 15.0795 20.22 15.7695 20.22 16.6195Z" stroke="#686C71" stroke-width="1.5" stroke-linecap="round" stroke-linejoin="round"/>
<path d="M12 3.78V2.75" stroke="#686C71" stroke-width="1.5" stroke-linecap="round" stroke-linejoin="round"/>
<path d="M15.0799 18.1699C15.0799 19.8799 13.6999 21.2499 11.9999 21.2499C10.2999 21.2499 8.91992 19.8699 8.91992 18.1699H15.0799Z" stroke="#686C71" stroke-width="1.5" stroke-linecap="round" stroke-linejoin="round"/>
<circle cx="17.7822" cy="4" r="3.5" fill="#FF3F3F" stroke="white"/>
</svg>
