<svg width="20" height="20" viewBox="0 0 20 20" fill="none" xmlns="http://www.w3.org/2000/svg">
<path d="M9.99996 1.66699C10.4602 1.66699 10.8333 2.04009 10.8333 2.50033V3.33366C10.8333 3.7939 10.4602 4.16699 9.99996 4.16699C9.53972 4.16699 9.16662 3.7939 9.16662 3.33366V2.50033C9.16662 2.04009 9.53972 1.66699 9.99996 1.66699ZM15.8926 4.10776C16.218 4.4332 16.218 4.96084 15.8926 5.28627L15.3033 5.87553C14.9779 6.20097 14.4502 6.20097 14.1248 5.87553C13.7994 5.55009 13.7994 5.02246 14.1248 4.69702L14.714 4.10776C15.0395 3.78233 15.5671 3.78233 15.8926 4.10776ZM4.1074 4.10776C4.43283 3.78233 4.96047 3.78233 5.28591 4.10776L5.87516 4.69702C6.2006 5.02246 6.2006 5.55009 5.87516 5.87553C5.54973 6.20097 5.02209 6.20097 4.69665 5.87553L4.1074 5.28627C3.78196 4.96084 3.78196 4.4332 4.1074 4.10776ZM9.99996 6.66699C8.15901 6.66699 6.66663 8.15938 6.66663 10.0003C6.66663 11.8413 8.15901 13.3337 9.99996 13.3337C11.8409 13.3337 13.3333 11.8413 13.3333 10.0003C13.3333 8.15938 11.8409 6.66699 9.99996 6.66699ZM4.99996 10.0003C4.99996 7.2389 7.23853 5.00032 9.99996 5.00032C12.7614 5.00032 15 7.2389 15 10.0003C15 12.7617 12.7614 15.0003 9.99996 15.0003C7.23853 15.0003 4.99996 12.7617 4.99996 10.0003ZM1.66663 10.0003C1.66663 9.54009 2.03972 9.16699 2.49996 9.16699H3.33329C3.79353 9.16699 4.16663 9.54009 4.16663 10.0003C4.16663 10.4606 3.79353 10.8337 3.33329 10.8337H2.49996C2.03972 10.8337 1.66663 10.4606 1.66663 10.0003ZM15.8333 10.0003C15.8333 9.54009 16.2064 9.16699 16.6666 9.16699H17.5C17.9602 9.16699 18.3333 9.54009 18.3333 10.0003C18.3333 10.4606 17.9602 10.8337 17.5 10.8337H16.6666C16.2064 10.8337 15.8333 10.4606 15.8333 10.0003ZM4.69665 14.1251C5.02209 13.7997 5.54973 13.7997 5.87516 14.1251C6.2006 14.4505 6.2006 14.9782 5.87516 15.3036L5.28591 15.8929C4.96047 16.2183 4.43283 16.2183 4.1074 15.8929C3.78196 15.5674 3.78196 15.0398 4.1074 14.7144L4.69665 14.1251ZM14.1248 15.3036C13.7994 14.9782 13.7994 14.4505 14.1248 14.1251C14.4502 13.7997 14.9779 13.7997 15.3033 14.1251L15.8926 14.7144C16.218 15.0398 16.218 15.5674 15.8926 15.8929C15.5671 16.2183 15.0395 16.2183 14.714 15.8929L14.1248 15.3036ZM9.99996 15.8337C10.4602 15.8337 10.8333 16.2068 10.8333 16.667V17.5003C10.8333 17.9606 10.4602 18.3337 9.99996 18.3337C9.53972 18.3337 9.16662 17.9606 9.16662 17.5003V16.667C9.16662 16.2068 9.53972 15.8337 9.99996 15.8337Z" fill="#1C1D22"/>
</svg>
