<svg width="16" height="16" viewBox="0 0 16 16" fill="none" xmlns="http://www.w3.org/2000/svg">
<g opacity="0.5">
<path d="M2.66663 4.66667C2.66663 4.29848 2.9651 4 3.33329 4H3.99996C4.36815 4 4.66663 4.29848 4.66663 4.66667C4.66663 5.03486 4.36815 5.33333 3.99996 5.33333H3.33329C2.9651 5.33333 2.66663 5.03486 2.66663 4.66667ZM5.99996 4.66667C5.99996 4.29848 6.29844 4 6.66663 4H12.6666C13.0348 4 13.3333 4.29848 13.3333 4.66667C13.3333 5.03486 13.0348 5.33333 12.6666 5.33333H6.66663C6.29844 5.33333 5.99996 5.03486 5.99996 4.66667ZM2.66663 8C2.66663 7.63181 2.9651 7.33333 3.33329 7.33333H3.99996C4.36815 7.33333 4.66663 7.63181 4.66663 8C4.66663 8.36819 4.36815 8.66667 3.99996 8.66667H3.33329C2.9651 8.66667 2.66663 8.36819 2.66663 8ZM5.99996 8C5.99996 7.63181 6.29844 7.33333 6.66663 7.33333H12.6666C13.0348 7.33333 13.3333 7.63181 13.3333 8C13.3333 8.36819 13.0348 8.66667 12.6666 8.66667H6.66663C6.29844 8.66667 5.99996 8.36819 5.99996 8ZM2.66663 11.3333C2.66663 10.9651 2.9651 10.6667 3.33329 10.6667H3.99996C4.36815 10.6667 4.66663 10.9651 4.66663 11.3333C4.66663 11.7015 4.36815 12 3.99996 12H3.33329C2.9651 12 2.66663 11.7015 2.66663 11.3333ZM5.99996 11.3333C5.99996 10.9651 6.29844 10.6667 6.66663 10.6667H12.6666C13.0348 10.6667 13.3333 10.9651 13.3333 11.3333C13.3333 11.7015 13.0348 12 12.6666 12H6.66663C6.29844 12 5.99996 11.7015 5.99996 11.3333Z" fill="#1C1D22"/>
</g>
</svg>
