<svg width="20" height="20" viewBox="0 0 20 20" fill="none" xmlns="http://www.w3.org/2000/svg">
<circle opacity="0.1" cx="10" cy="10" r="10" fill="#686C71"/>
<path d="M14.6666 9.66634V10.333C14.6666 10.5171 14.5173 10.6663 14.3333 10.6663H10.6666V14.333C10.6666 14.5171 10.5173 14.6663 10.3333 14.6663H9.66659C9.48249 14.6663 9.33325 14.5171 9.33325 14.333V10.6663H5.66659C5.48249 10.6663 5.33325 10.5171 5.33325 10.333V9.66634C5.33325 9.48225 5.48249 9.33301 5.66659 9.33301H9.33325V5.66634C9.33325 5.48225 9.48249 5.33301 9.66659 5.33301H10.3333C10.5173 5.33301 10.6666 5.48225 10.6666 5.66634V9.33301H14.3333C14.5173 9.33301 14.6666 9.48225 14.6666 9.66634Z" fill="#686C71"/>
</svg>
