<svg width="16" height="16" viewBox="0 0 16 16" fill="none" xmlns="http://www.w3.org/2000/svg">
<g clip-path="url(#clip0_58_572)">
<path fill-rule="evenodd" clip-rule="evenodd" d="M3.49992 6.20152V5.33301C3.49992 2.84773 5.51464 0.833008 7.99992 0.833008C10.4852 0.833008 12.4999 2.84773 12.4999 5.33301V6.20152C12.6511 6.21215 12.7937 6.226 12.9278 6.24402C13.5278 6.3247 14.0331 6.4973 14.4344 6.89857C14.8356 7.29985 15.0082 7.8051 15.0889 8.40517C15.1666 8.98315 15.1666 9.71803 15.1666 10.6298V10.7029C15.1666 11.6146 15.1666 12.3495 15.0889 12.9275C15.0082 13.5276 14.8356 14.0328 14.4344 14.4341C14.0331 14.8354 13.5278 15.008 12.9278 15.0887C12.3498 15.1664 11.6149 15.1664 10.7032 15.1663H5.29667C4.38495 15.1664 3.65006 15.1664 3.07209 15.0887C2.47201 15.008 1.96676 14.8354 1.56549 14.4341C1.16421 14.0328 0.991612 13.5276 0.910935 12.9275C0.833228 12.3495 0.833239 11.6147 0.833252 10.7029V10.6298C0.833239 9.71803 0.833228 8.98315 0.910935 8.40517C0.991612 7.8051 1.16421 7.29985 1.56549 6.89857C1.96676 6.4973 2.47201 6.3247 3.07209 6.24402C3.20617 6.226 3.3487 6.21215 3.49992 6.20152ZM4.49992 5.33301C4.49992 3.40001 6.06692 1.83301 7.99992 1.83301C9.93292 1.83301 11.4999 3.40001 11.4999 5.33301V6.16864C11.2509 6.16633 10.9855 6.16634 10.7032 6.16634H5.29667C5.01432 6.16634 4.74894 6.16633 4.49992 6.16864V5.33301ZM2.27259 7.60568C2.4571 7.42117 2.71615 7.30087 3.20533 7.23511C3.7089 7.1674 4.37631 7.16634 5.33325 7.16634H10.6666C11.6235 7.16634 12.2909 7.1674 12.7945 7.23511C13.2837 7.30087 13.5427 7.42117 13.7272 7.60568C13.9118 7.79019 14.0321 8.04924 14.0978 8.53842C14.1655 9.04199 14.1666 9.7094 14.1666 10.6663C14.1666 11.6233 14.1655 12.2907 14.0978 12.7943C14.0321 13.2834 13.9118 13.5425 13.7272 13.727C13.5427 13.9115 13.2837 14.0318 12.7945 14.0976C12.2909 14.1653 11.6235 14.1663 10.6666 14.1663H5.33325C4.37631 14.1663 3.7089 14.1653 3.20533 14.0976C2.71615 14.0318 2.4571 13.9115 2.27259 13.727C2.08808 13.5425 1.96779 13.2834 1.90202 12.7943C1.83431 12.2907 1.83325 11.6233 1.83325 10.6663C1.83325 9.7094 1.83431 9.04199 1.90202 8.53842C1.96779 8.04924 2.08808 7.79019 2.27259 7.60568Z" fill="#1C274C"/>
</g>
<defs>
<clipPath id="clip0_58_572">
<rect width="16" height="16" fill="white"/>
</clipPath>
</defs>
</svg>
