<svg width="90" height="988" viewBox="0 0 90 988" fill="none" xmlns="http://www.w3.org/2000/svg">
<rect width="90" height="900" fill="#1E62D7"/>
<g opacity="0.5">
<path fill-rule="evenodd" clip-rule="evenodd" d="M44.0833 984.333C44.0833 983.827 43.6729 983.417 43.1667 983.417H38.5833V970.583H43.1667C43.6729 970.583 44.0833 970.173 44.0833 969.667C44.0833 969.16 43.6729 968.75 43.1667 968.75H38.5833C37.5708 968.75 36.75 969.571 36.75 970.583V983.417C36.75 984.429 37.5708 985.25 38.5833 985.25H43.1667C43.6729 985.25 44.0833 984.84 44.0833 984.333Z" fill="white"/>
<path d="M53.9041 977.642C53.9891 977.556 54.0534 977.457 54.0971 977.351C54.1416 977.244 54.1663 977.126 54.1667 977.003L54.1667 977L54.1667 976.997C54.166 976.764 54.0765 976.53 53.8982 976.352L50.2315 972.685C49.8735 972.327 49.2931 972.327 48.9352 972.685C48.5772 973.043 48.5772 973.624 48.9352 973.982L51.037 976.083H42.25C41.7437 976.083 41.3333 976.494 41.3333 977C41.3333 977.506 41.7437 977.917 42.25 977.917H51.037L48.9352 980.018C48.5772 980.376 48.5772 980.957 48.9352 981.315C49.2931 981.673 49.8735 981.673 50.2315 981.315L53.8975 977.649L53.9041 977.642Z" fill="white"/>
</g>
<g opacity="0.5">
<path d="M42.25 520.583C41.7437 520.583 41.3333 520.994 41.3333 521.5C41.3333 522.006 41.7437 522.417 42.25 522.417C42.7562 522.417 43.1666 522.006 43.1666 521.5C43.1666 520.994 42.7562 520.583 42.25 520.583ZM39.6564 520.583C40.034 519.515 41.0526 518.75 42.25 518.75C43.4473 518.75 44.466 519.515 44.8435 520.583H51.4166C51.9229 520.583 52.3333 520.994 52.3333 521.5C52.3333 522.006 51.9229 522.417 51.4166 522.417H44.8435C44.466 523.485 43.4473 524.25 42.25 524.25C41.0526 524.25 40.034 523.485 39.6564 522.417H38.5833C38.077 522.417 37.6666 522.006 37.6666 521.5C37.6666 520.994 38.077 520.583 38.5833 520.583H39.6564ZM47.75 526.083C47.2437 526.083 46.8333 526.494 46.8333 527C46.8333 527.506 47.2437 527.917 47.75 527.917C48.2562 527.917 48.6666 527.506 48.6666 527C48.6666 526.494 48.2562 526.083 47.75 526.083ZM45.1564 526.083C45.534 525.015 46.5526 524.25 47.75 524.25C48.9473 524.25 49.966 525.015 50.3435 526.083H51.4166C51.9229 526.083 52.3333 526.494 52.3333 527C52.3333 527.506 51.9229 527.917 51.4166 527.917H50.3435C49.966 528.985 48.9473 529.75 47.75 529.75C46.5526 529.75 45.534 528.985 45.1564 527.917H38.5833C38.077 527.917 37.6666 527.506 37.6666 527C37.6666 526.494 38.077 526.083 38.5833 526.083H45.1564ZM42.25 531.583C41.7437 531.583 41.3333 531.994 41.3333 532.5C41.3333 533.006 41.7437 533.417 42.25 533.417C42.7562 533.417 43.1666 533.006 43.1666 532.5C43.1666 531.994 42.7562 531.583 42.25 531.583ZM39.6564 531.583C40.034 530.515 41.0526 529.75 42.25 529.75C43.4473 529.75 44.466 530.515 44.8435 531.583H51.4166C51.9229 531.583 52.3333 531.994 52.3333 532.5C52.3333 533.006 51.9229 533.417 51.4166 533.417H44.8435C44.466 534.485 43.4473 535.25 42.25 535.25C41.0526 535.25 40.034 534.485 39.6564 533.417H38.5833C38.077 533.417 37.6666 533.006 37.6666 532.5C37.6666 531.994 38.077 531.583 38.5833 531.583H39.6564Z" fill="white"/>
</g>
<g opacity="0.5">
<path d="M41.9602 456.797C42.1483 456.734 42.3518 456.734 42.5399 456.797L47.75 458.534L51.7536 457.199C52.9408 456.804 54.1667 457.687 54.1667 458.938V469.839C54.1667 470.628 53.6617 471.329 52.9131 471.579L48.0399 473.203C47.8518 473.266 47.6483 473.266 47.4602 473.203L42.25 471.466L38.2465 472.801C37.0593 473.196 35.8334 472.313 35.8334 471.062V460.161C35.8334 459.372 36.3383 458.671 37.087 458.421L41.9602 456.797ZM43.1667 469.839L46.8334 471.062V460.161L43.1667 458.938V469.839ZM41.3334 458.938L37.6667 460.161V471.062L41.3334 469.839V458.938ZM48.6667 460.161V471.062L52.3334 469.839V458.938L48.6667 460.161Z" fill="white"/>
</g>
<g opacity="0.5">
<path d="M44.0834 395.666C42.0583 395.666 40.4167 397.308 40.4167 399.333C40.4167 399.363 40.4171 399.394 40.4179 399.427C40.4279 399.853 40.1426 400.23 39.7296 400.336C38.5428 400.641 37.6667 401.719 37.6667 403C37.6667 404.518 38.8979 405.75 40.4167 405.75H41.3334C41.8396 405.75 42.25 406.16 42.25 406.666C42.25 407.173 41.8396 407.583 41.3334 407.583H40.4167C37.8854 407.583 35.8334 405.531 35.8334 403C35.8334 401.109 36.9776 399.487 38.6102 398.786C38.8845 396.005 41.2302 393.833 44.0834 393.833C46.1216 393.833 47.8993 394.942 48.8491 396.586C51.8023 396.682 54.1667 399.106 54.1667 402.083C54.1667 405.121 51.7043 407.583 48.6667 407.583C48.1604 407.583 47.75 407.173 47.75 406.666C47.75 406.16 48.1604 405.75 48.6667 405.75C50.6918 405.75 52.3334 404.108 52.3334 402.083C52.3334 400.058 50.6918 398.416 48.6667 398.416C48.5652 398.416 48.465 398.42 48.3659 398.428C47.9746 398.46 47.6065 398.239 47.4506 397.879C46.8869 396.575 45.5903 395.666 44.0834 395.666ZM44.3519 400.518C44.7098 400.16 45.2902 400.16 45.6482 400.518L47.4816 402.351C47.8395 402.709 47.8395 403.29 47.4816 403.648C47.1236 404.006 46.5432 404.006 46.1852 403.648L45.9167 403.379V410.333C45.9167 410.839 45.5063 411.25 45 411.25C44.4938 411.25 44.0834 410.839 44.0834 410.333V403.379L43.8149 403.648C43.4569 404.006 42.8765 404.006 42.5185 403.648C42.1605 403.29 42.1605 402.709 42.5185 402.351L44.3519 400.518Z" fill="white"/>
</g>
<g opacity="0.5">
<path d="M36.75 334.583C36.75 333.571 37.5708 332.75 38.5833 332.75H51.4167C52.4292 332.75 53.25 333.571 53.25 334.583V347.417C53.25 348.429 52.4292 349.25 51.4167 349.25H38.5833C37.5708 349.25 36.75 348.429 36.75 347.417V334.583ZM51.4167 334.583H38.5833V347.417H51.4167V334.583ZM45 336.417C45.5063 336.417 45.9167 336.827 45.9167 337.333V344.667C45.9167 345.173 45.5063 345.583 45 345.583C44.4937 345.583 44.0833 345.173 44.0833 344.667V337.333C44.0833 336.827 44.4937 336.417 45 336.417ZM48.6667 338.25C49.1729 338.25 49.5833 338.66 49.5833 339.167V344.667C49.5833 345.173 49.1729 345.583 48.6667 345.583C48.1604 345.583 47.75 345.173 47.75 344.667V339.167C47.75 338.66 48.1604 338.25 48.6667 338.25ZM41.3333 340.083C41.8396 340.083 42.25 340.494 42.25 341V344.667C42.25 345.173 41.8396 345.583 41.3333 345.583C40.8271 345.583 40.4167 345.173 40.4167 344.667V341C40.4167 340.494 40.8271 340.083 41.3333 340.083Z" fill="white"/>
</g>
<g opacity="0.5">
<path d="M42.25 269.833C42.7563 269.833 43.1667 270.243 43.1667 270.75V271.666H46.8333V270.75C46.8333 270.243 47.2437 269.833 47.75 269.833C48.2563 269.833 48.6667 270.243 48.6667 270.75V271.666H51.4167C52.4292 271.666 53.25 272.487 53.25 273.5V285.416C53.25 286.429 52.4292 287.25 51.4167 287.25H38.5833C37.5708 287.25 36.75 286.429 36.75 285.416V273.5C36.75 272.487 37.5708 271.666 38.5833 271.666H41.3333V270.75C41.3333 270.243 41.7437 269.833 42.25 269.833ZM41.3333 273.5H38.5833V276.25H51.4167V273.5H48.6667V274.416C48.6667 274.923 48.2563 275.333 47.75 275.333C47.2437 275.333 46.8333 274.923 46.8333 274.416V273.5H43.1667V274.416C43.1667 274.923 42.7563 275.333 42.25 275.333C41.7437 275.333 41.3333 274.923 41.3333 274.416V273.5ZM51.4167 278.083H38.5833V285.416H51.4167V278.083Z" fill="white"/>
</g>
<g opacity="0.5">
<path d="M45 209.666C42.975 209.666 41.3333 211.308 41.3333 213.333C41.3333 215.358 42.975 217 45 217C47.025 217 48.6667 215.358 48.6667 213.333C48.6667 211.308 47.025 209.666 45 209.666ZM39.5 213.333C39.5 210.295 41.9624 207.833 45 207.833C48.0376 207.833 50.5 210.295 50.5 213.333C50.5 216.371 48.0376 218.833 45 218.833C41.9624 218.833 39.5 216.371 39.5 213.333ZM41.3333 222.5C39.8146 222.5 38.5833 223.731 38.5833 225.25C38.5833 225.756 38.1729 226.166 37.6667 226.166C37.1604 226.166 36.75 225.756 36.75 225.25C36.75 222.718 38.802 220.666 41.3333 220.666H48.6667C51.198 220.666 53.25 222.718 53.25 225.25C53.25 225.756 52.8396 226.166 52.3333 226.166C51.8271 226.166 51.4167 225.756 51.4167 225.25C51.4167 223.731 50.1854 222.5 48.6667 222.5H41.3333Z" fill="white"/>
</g>
<circle cx="45" cy="155" r="24" fill="white" fill-opacity="0.1"/>
<path d="M36.75 148.583C36.75 147.571 37.5708 146.75 38.5833 146.75H42.25C43.2625 146.75 44.0833 147.571 44.0833 148.583V152.25C44.0833 153.263 43.2625 154.083 42.25 154.083H38.5833C37.5708 154.083 36.75 153.263 36.75 152.25V148.583ZM42.25 148.583H38.5833V152.25H42.25V148.583ZM45.9167 148.583C45.9167 147.571 46.7375 146.75 47.75 146.75H51.4167C52.4292 146.75 53.25 147.571 53.25 148.583V152.25C53.25 153.263 52.4292 154.083 51.4167 154.083H47.75C46.7375 154.083 45.9167 153.263 45.9167 152.25V148.583ZM51.4167 148.583H47.75V152.25H51.4167V148.583ZM36.75 157.75C36.75 156.737 37.5708 155.917 38.5833 155.917H42.25C43.2625 155.917 44.0833 156.737 44.0833 157.75V161.417C44.0833 162.429 43.2625 163.25 42.25 163.25H38.5833C37.5708 163.25 36.75 162.429 36.75 161.417V157.75ZM42.25 157.75H38.5833V161.417H42.25V157.75ZM45.9167 157.75C45.9167 156.737 46.7375 155.917 47.75 155.917H51.4167C52.4292 155.917 53.25 156.737 53.25 157.75V161.417C53.25 162.429 52.4292 163.25 51.4167 163.25H47.75C46.7375 163.25 45.9167 162.429 45.9167 161.417V157.75ZM51.4167 157.75H47.75V161.417H51.4167V157.75Z" fill="white"/>
<path d="M57 78.8889L47 74V75.4666L55.5 79.6222L47 83.7777V96L57 91.1111V78.8889Z" fill="white"/>
<path d="M33 87.1111L43 92V90.5334L34.5 86.3778L43 82.2223V70L33 74.8889V87.1111Z" fill="white"/>
</svg>
